<?xml version="1.0" standalone="no"?>
<!DOCTYPE svg PUBLIC "-//W3C//DTD SVG 20010904//EN"
 "http://www.w3.org/TR/2001/REC-SVG-20010904/DTD/svg10.dtd">
<svg version="1.0" xmlns="http://www.w3.org/2000/svg"
 width="512.000000pt" height="512.000000pt" viewBox="0 0 512.000000 512.000000"
 preserveAspectRatio="xMidYMid meet">

<g transform="translate(0.000000,512.000000) scale(0.100000,-0.100000)"
fill="#000000" stroke="none">
<path d="M2388 4766 c-1197 -83 -2179 -154 -2181 -156 -6 -6 296 -4397 303
-4403 3 -3 995 63 2205 147 l2200 152 -2 49 c-4 107 -294 4321 -299 4343 -3
15 -11 22 -27 21 -12 -1 -1002 -70 -2199 -153z m1992 -2206 l0 -1820 -1820 0
-1820 0 0 1820 0 1820 1820 0 1820 0 0 -1820z"/>
<path d="M1390 3810 l0 -170 849 -2 849 -3 -879 -1085 -879 -1085 0 -182 0
-183 1120 0 1120 0 0 170 0 170 -910 0 c-500 0 -910 2 -910 5 0 3 398 494 885
1092 l885 1087 0 178 0 178 -1065 0 -1065 0 0 -170z"/>
</g>
</svg>
